<?xml version="1.0" standalone="no"?>
<!DOCTYPE svg PUBLIC "-//W3C//DTD SVG 20010904//EN"
 "http://www.w3.org/TR/2001/REC-SVG-20010904/DTD/svg10.dtd">
<svg version="1.0" xmlns="http://www.w3.org/2000/svg"
 width="778.000000pt" height="1280.000000pt" viewBox="0 0 778.000000 1280.000000"
 preserveAspectRatio="xMidYMid meet">
<metadata>
Created by potrace 1.15, written by Peter Selinger 2001-2017
</metadata>
<g transform="translate(0.000000,1280.000000) scale(0.100000,-0.100000)"
fill="#000000" stroke="none">
<path d="M6180 12794 c-14 -2 -62 -9 -108 -15 -45 -6 -84 -14 -87 -19 -2 -4
37 -10 88 -13 414 -28 888 -277 1198 -630 257 -293 432 -684 456 -1019 3 -49
9 -88 13 -88 17 0 35 174 34 335 0 134 -5 191 -22 271 -65 305 -188 532 -406
750 -217 217 -447 342 -745 404 -91 20 -359 35 -421 24z"/>
<path d="M5845 12149 c-44 -4 -98 -12 -120 -16 -37 -9 -33 -10 63 -22 671 -82
1221 -632 1303 -1303 11 -89 14 -98 21 -68 16 73 25 249 17 341 -54 648 -640
1135 -1284 1068z"/>
<path d="M5187 11501 c-58 -12 -53 -18 26 -24 312 -27 644 -247 830 -552 78
-128 147 -339 147 -451 0 -38 3 -46 13 -36 9 10 12 59 12 180 -1 153 -3 174
-29 257 -90 294 -310 514 -601 601 -74 22 -114 27 -225 30 -74 1 -152 -1 -173
-5z"/>
<path d="M433 10896 c-148 -36 -304 -162 -371 -298 -67 -138 -62 297 -60
-5175 l3 -4968 26 -66 c37 -96 75 -157 138 -220 63 -63 124 -101 220 -138 l66
-26 2335 -3 c1653 -2 2354 0 2400 8 169 29 332 153 408 311 23 46 45 111 51
143 8 42 11 1536 11 4995 0 5427 5 5002 -62 5139 -47 97 -159 208 -258 255
-41 19 -99 40 -128 46 -82 17 -4709 14 -4779 -3z m3125 -800 c72 -37 86 -166
26 -231 l-23 -25 -714 0 -714 0 -20 23 c-11 12 -26 32 -32 44 -28 55 1 167 51
190 16 8 226 12 711 12 575 1 693 -1 715 -13z m1972 -4571 l0 -3905 -2700 0
-2700 0 0 3905 0 3905 2700 0 2700 0 0 -3905z m-2555 -4080 c89 -24 173 -73
241 -141 74 -74 118 -159 141 -271 15 -70 16 -93 5 -163 -29 -201 -172 -372
-361 -431 -90 -28 -222 -28 -312 0 -260 81 -416 355 -354 620 44 183 193 336
378 386 70 18 189 18 262 0z"/>
</g>
</svg>
